<mxfile host="app.diagrams.net" modified="2024-04-21T23:13:33.599Z" agent="Mozilla/5.0 (Windows NT 10.0; Win64; x64) AppleWebKit/537.36 (KHTML, like Gecko) Chrome/123.0.0.0 Safari/537.36" etag="B7W23v6H3t5FXNncqCBi" version="23.1.8" type="github">
  <diagram id="C5RBs43oDa-KdzZeNtuy" name="Page-1">
    <mxGraphModel dx="880" dy="1603" grid="1" gridSize="10" guides="1" tooltips="1" connect="1" arrows="1" fold="1" page="1" pageScale="1" pageWidth="827" pageHeight="1169" math="0" shadow="0">
      <root>
        <mxCell id="WIyWlLk6GJQsqaUBKTNV-0" />
        <mxCell id="WIyWlLk6GJQsqaUBKTNV-1" parent="WIyWlLk6GJQsqaUBKTNV-0" />
        <mxCell id="PfYnCu-d0ukhKzA5Y9JJ-7" style="edgeStyle=orthogonalEdgeStyle;rounded=0;orthogonalLoop=1;jettySize=auto;html=1;" edge="1" parent="WIyWlLk6GJQsqaUBKTNV-1" source="PfYnCu-d0ukhKzA5Y9JJ-0" target="PfYnCu-d0ukhKzA5Y9JJ-1">
          <mxGeometry relative="1" as="geometry" />
        </mxCell>
        <mxCell id="PfYnCu-d0ukhKzA5Y9JJ-0" value="Director de carrera" style="strokeWidth=2;html=1;shape=mxgraph.flowchart.start_1;whiteSpace=wrap;" vertex="1" parent="WIyWlLk6GJQsqaUBKTNV-1">
          <mxGeometry x="420" y="20" width="150" height="60" as="geometry" />
        </mxCell>
        <mxCell id="PfYnCu-d0ukhKzA5Y9JJ-8" style="edgeStyle=orthogonalEdgeStyle;rounded=0;orthogonalLoop=1;jettySize=auto;html=1;" edge="1" parent="WIyWlLk6GJQsqaUBKTNV-1" source="PfYnCu-d0ukhKzA5Y9JJ-1" target="PfYnCu-d0ukhKzA5Y9JJ-2">
          <mxGeometry relative="1" as="geometry" />
        </mxCell>
        <mxCell id="PfYnCu-d0ukhKzA5Y9JJ-1" value="Definir plan de estudios" style="rounded=1;whiteSpace=wrap;html=1;absoluteArcSize=1;arcSize=14;strokeWidth=2;" vertex="1" parent="WIyWlLk6GJQsqaUBKTNV-1">
          <mxGeometry x="410" y="130" width="170" height="50" as="geometry" />
        </mxCell>
        <mxCell id="PfYnCu-d0ukhKzA5Y9JJ-9" style="edgeStyle=orthogonalEdgeStyle;rounded=0;orthogonalLoop=1;jettySize=auto;html=1;" edge="1" parent="WIyWlLk6GJQsqaUBKTNV-1" source="PfYnCu-d0ukhKzA5Y9JJ-2" target="PfYnCu-d0ukhKzA5Y9JJ-3">
          <mxGeometry relative="1" as="geometry" />
        </mxCell>
        <mxCell id="PfYnCu-d0ukhKzA5Y9JJ-2" value="Asignar horarios y docentes a clases" style="rounded=1;whiteSpace=wrap;html=1;absoluteArcSize=1;arcSize=14;strokeWidth=2;" vertex="1" parent="WIyWlLk6GJQsqaUBKTNV-1">
          <mxGeometry x="405" y="230" width="180" height="50" as="geometry" />
        </mxCell>
        <mxCell id="PfYnCu-d0ukhKzA5Y9JJ-10" style="edgeStyle=orthogonalEdgeStyle;rounded=0;orthogonalLoop=1;jettySize=auto;html=1;entryX=0.5;entryY=0;entryDx=0;entryDy=0;" edge="1" parent="WIyWlLk6GJQsqaUBKTNV-1" source="PfYnCu-d0ukhKzA5Y9JJ-3" target="PfYnCu-d0ukhKzA5Y9JJ-4">
          <mxGeometry relative="1" as="geometry" />
        </mxCell>
        <mxCell id="PfYnCu-d0ukhKzA5Y9JJ-3" value="Dar clases y evaluar estudiantes" style="rounded=1;whiteSpace=wrap;html=1;absoluteArcSize=1;arcSize=14;strokeWidth=2;" vertex="1" parent="WIyWlLk6GJQsqaUBKTNV-1">
          <mxGeometry x="405" y="320" width="180" height="50" as="geometry" />
        </mxCell>
        <mxCell id="PfYnCu-d0ukhKzA5Y9JJ-4" value="Registrar calificaciones" style="rounded=1;whiteSpace=wrap;html=1;absoluteArcSize=1;arcSize=14;strokeWidth=2;" vertex="1" parent="WIyWlLk6GJQsqaUBKTNV-1">
          <mxGeometry x="405" y="410" width="180" height="40" as="geometry" />
        </mxCell>
        <mxCell id="PfYnCu-d0ukhKzA5Y9JJ-6" value="Legajo" style="strokeWidth=2;html=1;shape=mxgraph.flowchart.multi-document;whiteSpace=wrap;" vertex="1" parent="WIyWlLk6GJQsqaUBKTNV-1">
          <mxGeometry x="680" y="400" width="88" height="60" as="geometry" />
        </mxCell>
        <mxCell id="PfYnCu-d0ukhKzA5Y9JJ-11" style="edgeStyle=orthogonalEdgeStyle;rounded=0;orthogonalLoop=1;jettySize=auto;html=1;entryX=0;entryY=0.5;entryDx=0;entryDy=0;entryPerimeter=0;" edge="1" parent="WIyWlLk6GJQsqaUBKTNV-1" source="PfYnCu-d0ukhKzA5Y9JJ-4" target="PfYnCu-d0ukhKzA5Y9JJ-6">
          <mxGeometry relative="1" as="geometry" />
        </mxCell>
        <mxCell id="PfYnCu-d0ukhKzA5Y9JJ-13" value="Fin" style="strokeWidth=2;html=1;shape=mxgraph.flowchart.terminator;whiteSpace=wrap;" vertex="1" parent="WIyWlLk6GJQsqaUBKTNV-1">
          <mxGeometry x="445" y="525" width="100" height="60" as="geometry" />
        </mxCell>
        <mxCell id="PfYnCu-d0ukhKzA5Y9JJ-14" style="edgeStyle=orthogonalEdgeStyle;rounded=0;orthogonalLoop=1;jettySize=auto;html=1;entryX=0.5;entryY=0;entryDx=0;entryDy=0;entryPerimeter=0;" edge="1" parent="WIyWlLk6GJQsqaUBKTNV-1" source="PfYnCu-d0ukhKzA5Y9JJ-4" target="PfYnCu-d0ukhKzA5Y9JJ-13">
          <mxGeometry relative="1" as="geometry" />
        </mxCell>
        <mxCell id="PfYnCu-d0ukhKzA5Y9JJ-15" value="Inicio" style="strokeWidth=2;html=1;shape=mxgraph.flowchart.start_1;whiteSpace=wrap;" vertex="1" parent="WIyWlLk6GJQsqaUBKTNV-1">
          <mxGeometry x="445" y="-80" width="100" height="60" as="geometry" />
        </mxCell>
        <mxCell id="PfYnCu-d0ukhKzA5Y9JJ-16" style="edgeStyle=orthogonalEdgeStyle;rounded=0;orthogonalLoop=1;jettySize=auto;html=1;entryX=0.5;entryY=0;entryDx=0;entryDy=0;entryPerimeter=0;" edge="1" parent="WIyWlLk6GJQsqaUBKTNV-1" source="PfYnCu-d0ukhKzA5Y9JJ-15" target="PfYnCu-d0ukhKzA5Y9JJ-0">
          <mxGeometry relative="1" as="geometry" />
        </mxCell>
      </root>
    </mxGraphModel>
  </diagram>
</mxfile>
